<svg width="34" height="34" viewBox="0 0 34 34" fill="none" xmlns="http://www.w3.org/2000/svg">
<path d="M6.57881 6.80005H29.1038C31.2288 6.80005 32.2998 7.80305 32.2998 9.84305V24.1571C32.2998 26.1801 31.2288 27.2001 29.1038 27.2001H6.57881C4.45381 27.2001 3.38281 26.1801 3.38281 24.1571V9.84305C3.38281 7.80305 4.45381 6.80005 6.57881 6.80005ZM17.8328 21.4201L29.2908 12.019C29.6988 11.679 30.0218 10.897 29.5118 10.2C29.0188 9.50305 28.1178 9.48605 27.5228 9.91105L17.8328 16.473L8.15981 9.91105C7.56481 9.48605 6.66381 9.50305 6.17081 10.2C5.66081 10.897 5.98381 11.679 6.39181 12.019L17.8328 21.4201Z" fill="white"/>
</svg>
