<svg width="38" height="38" viewBox="0 0 38 38" fill="none" xmlns="http://www.w3.org/2000/svg">
<path d="M8.30951 20.9145C6.37072 20.4111 4.67512 22.1085 5.18252 24.0462C5.81392 26.4575 7.07644 28.6813 8.86917 30.474C11.5254 33.1302 15.128 34.6225 18.8845 34.6225C18.8845 28.0011 14.3936 22.4941 8.30951 20.9145ZM18.8845 8.65561C19.9279 8.65561 20.9286 9.07012 21.6665 9.80796C22.4043 10.5458 22.8188 11.5465 22.8188 12.59C22.8188 13.6334 22.4043 14.6342 21.6665 15.372C20.9286 16.1098 19.9279 16.5244 18.8845 16.5244C17.841 16.5244 16.8403 16.1098 16.1024 15.372C15.3646 14.6342 14.9501 13.6334 14.9501 12.59C14.9501 11.5465 15.3646 10.5458 16.1024 9.80796C16.8403 9.07012 17.841 8.65561 18.8845 8.65561ZM8.81245 16.1309C8.81245 17.1744 9.22697 18.1751 9.9648 18.9129C10.7026 19.6508 11.7034 20.0653 12.7468 20.0653C13.5809 20.0653 14.3521 19.7978 14.9501 19.3728V19.6719C14.9501 20.7153 15.3646 21.716 16.1024 22.4539C16.8403 23.1917 17.841 23.6062 18.8845 23.6062C19.9279 23.6062 20.9286 23.1917 21.6665 22.4539C22.4043 21.716 22.8188 20.7153 22.8188 19.6719V19.3728C23.4169 19.7978 24.188 20.0653 25.0221 20.0653C26.0655 20.0653 27.0663 19.6508 27.8041 18.9129C28.5419 18.1751 28.9565 17.1744 28.9565 16.1309C28.9565 14.5572 28.0279 13.2195 26.706 12.59C28.0279 11.9605 28.9565 10.6071 28.9565 9.04904C28.9565 8.00558 28.5419 7.00486 27.8041 6.26702C27.0663 5.52918 26.0655 5.11467 25.0221 5.11467C24.188 5.11467 23.4169 5.36647 22.8188 5.80712V5.50811C22.8188 4.46464 22.4043 3.46392 21.6665 2.72608C20.9286 1.98824 19.9279 1.57373 18.8845 1.57373C17.841 1.57373 16.8403 1.98824 16.1024 2.72608C15.3646 3.46392 14.9501 4.46464 14.9501 5.50811V5.80712C14.3521 5.36647 13.5809 5.11467 12.7468 5.11467C11.7034 5.11467 10.7026 5.52918 9.9648 6.26702C9.22697 7.00486 8.81245 8.00558 8.81245 9.04904C8.81245 10.6071 9.74097 11.9605 11.0629 12.59C9.74097 13.2195 8.81245 14.5572 8.81245 16.1309ZM18.8845 34.6225C22.6409 34.6225 26.2435 33.1302 28.8997 30.474C30.6925 28.6813 31.955 26.4575 32.5864 24.0462C33.0938 22.1085 31.3985 20.4107 29.4588 20.9106C23.3493 22.4849 18.8845 27.9956 18.8845 34.6225Z" fill="white"/>
</svg>
