<svg width="39" height="39" viewBox="0 0 39 39" fill="none" xmlns="http://www.w3.org/2000/svg">
<path d="M10.4375 34.25C10.4375 34.25 8 34.25 8 31.8125C8 29.375 10.4375 22.0625 20.1875 22.0625C29.9375 22.0625 32.375 29.375 32.375 31.8125C32.375 34.25 29.9375 34.25 29.9375 34.25H10.4375ZM20.1875 19.625C22.1269 19.625 23.9869 18.8546 25.3582 17.4832C26.7296 16.1119 27.5 14.2519 27.5 12.3125C27.5 10.3731 26.7296 8.51314 25.3582 7.14178C23.9869 5.77042 22.1269 5 20.1875 5C18.2481 5 16.3881 5.77042 15.0168 7.14178C13.6454 8.51314 12.875 10.3731 12.875 12.3125C12.875 14.2519 13.6454 16.1119 15.0168 17.4832C16.3881 18.8546 18.2481 19.625 20.1875 19.625Z" fill="white"/>
</svg>
