<svg width="39" height="39" viewBox="0 0 39 39" fill="none" xmlns="http://www.w3.org/2000/svg">
<path d="M17.0625 34.125C17.0625 34.125 14.625 34.125 14.625 31.6875C14.625 29.25 17.0625 21.9375 26.8125 21.9375C36.5625 21.9375 39 29.25 39 31.6875C39 34.125 36.5625 34.125 36.5625 34.125H17.0625ZM26.8125 19.5C28.7519 19.5 30.6119 18.7296 31.9832 17.3582C33.3546 15.9869 34.125 14.1269 34.125 12.1875C34.125 10.2481 33.3546 8.38814 31.9832 7.01678C30.6119 5.64542 28.7519 4.875 26.8125 4.875C24.8731 4.875 23.0131 5.64542 21.6418 7.01678C20.2704 8.38814 19.5 10.2481 19.5 12.1875C19.5 14.1269 20.2704 15.9869 21.6418 17.3582C23.0131 18.7296 24.8731 19.5 26.8125 19.5ZM12.714 34.125C12.3528 33.364 12.1726 32.5297 12.1875 31.6875C12.1875 28.3847 13.845 24.9844 16.9065 22.62C15.3786 22.1482 13.7864 21.9179 12.1875 21.9375C2.4375 21.9375 0 29.25 0 31.6875C0 34.125 2.4375 34.125 2.4375 34.125H12.714ZM10.9688 19.5C12.5849 19.5 14.1349 18.858 15.2777 17.7152C16.4205 16.5724 17.0625 15.0224 17.0625 13.4062C17.0625 11.7901 16.4205 10.2401 15.2777 9.09732C14.1349 7.95452 12.5849 7.3125 10.9688 7.3125C9.35259 7.3125 7.80262 7.95452 6.65982 9.09732C5.51702 10.2401 4.875 11.7901 4.875 13.4062C4.875 15.0224 5.51702 16.5724 6.65982 17.7152C7.80262 18.858 9.35259 19.5 10.9688 19.5Z" fill="white"/>
</svg>
