<svg width="39" height="39" viewBox="0 0 39 39" fill="none" xmlns="http://www.w3.org/2000/svg">
<path d="M20.8124 31.3684C20.8124 27.5789 22.9126 24.1684 25.9687 22.4632C23.4856 21.5158 20.4309 20.9474 16.9929 20.9474C8.58878 20.9474 5.24103 24.1538 2.89023 28.2348C2.89023 28.2348 0.539657 32.3158 3.47756 32.3158H20.8124V31.3684ZM31.3159 24.7368C27.6869 24.7368 24.6318 27.7684 24.6318 31.3684C24.6318 34.9684 27.6869 38 31.3159 38C34.945 38 38 34.9684 38 31.3684C38 27.7684 34.945 24.7368 31.3159 24.7368ZM24.6318 9.57895C24.6318 13.7474 21.195 17.1579 16.9929 17.1579C12.7908 17.1579 9.35395 13.7474 9.35395 9.57895C9.35395 5.41053 12.7908 2 16.9929 2C21.195 2 24.6318 5.41053 24.6318 9.57895Z" fill="white"/>
</svg>
